<?xml version="1.0" encoding="utf-8"?>
<!-- Generator: Adobe Illustrator 16.0.0, SVG Export Plug-In . SVG Version: 6.00 Build 0)  -->
<!DOCTYPE svg PUBLIC "-//W3C//DTD SVG 1.1//EN" "http://www.w3.org/Graphics/SVG/1.1/DTD/svg11.dtd">
<svg version="1.1" id="Capa_1" xmlns="http://www.w3.org/2000/svg" xmlns:xlink="http://www.w3.org/1999/xlink" x="0px" y="0px"
	 width="233.792px" height="167px" viewBox="0 0 233.792 167" enable-background="new 0 0 233.792 167" xml:space="preserve">
<g>
	<path d="M98.448,34.786c3.558-2.017,7.744-3.418,12.133-4.17c9.94-1.704,19.733-1.322,29.256,2.3c1.264,0.48,2.445,1.17,3.69,1.704
		c0.292,0.125,0.818,0.163,1.017-0.011c3.656-3.243,8.123-4.711,12.754-5.712c3.83-0.828,7.717-1.221,11.668-0.858
		c4.183,0.384,7.242,2.57,9.705,5.735c3.256,4.185,4.754,9.091,5.447,14.259c0.543,4.064,0.738,8.212-0.576,12.116
		c-0.826,2.448-0.543,4.562,0.006,6.925c3.334,14.346,2.953,28.547-2.289,42.417c-4.706,12.454-12.737,22.038-24.904,27.868
		c-1.286,0.617-2.615,1.143-3.926,1.709c-0.133-0.152-0.268-0.309-0.399-0.461c0.277-0.103,0.624-0.129,0.821-0.314
		c12.57-11.85,21.423-25.916,25.361-42.859c1.134-4.882,1.709-9.851,1.148-14.871c-0.521-4.667-1.521-9.243-3.699-13.433
		c-0.854-1.643-0.914-3.218-0.801-4.95c0.36-5.438,0.403-10.875-1.052-16.189c-1.116-4.076-3.024-7.602-7.322-9.136
		c-2.937-1.048-5.909-0.74-8.854-0.002c-5.17,1.295-9.825,3.76-14.35,6.483c-0.719,0.432-1.178,0.464-1.9,0.023
		c-4.315-2.631-8.864-4.75-13.826-5.863c-5.857-1.314-11.628-0.847-17.173,1.358c-3.251,1.293-6.35,2.978-9.476,4.569
		c-0.66,0.336-1.072,0.375-1.705-0.014c-4.504-2.764-9.16-5.221-14.33-6.516c-3.513-0.879-7.012-1.168-10.398,0.555
		c-2.49,1.267-3.974,3.391-5.035,5.874c-1.567,3.665-2.03,7.558-2.11,11.475c-0.063,3.15,0.227,6.307,0.322,9.461
		c0.015,0.491-0.065,1.05-0.292,1.475c-3.904,7.293-5.027,15.108-4.223,23.227c1.755,17.711,9.28,32.697,21.683,45.329
		c0.811,0.826,1.7,1.576,2.573,2.339c0.868,0.758,1.762,1.487,2.516,2.49c-2.028-0.953-4.108-1.812-6.076-2.876
		c-10.417-5.635-17.535-14.225-22.048-25.04c-4.264-10.22-5.647-20.909-4.923-31.918c0.336-5.119,1.231-10.134,2.551-15.084
		c0.137-0.511,0.191-1.144,0.016-1.623c-1.996-5.471-1.874-11.043-0.889-16.666c0.612-3.491,1.722-6.811,3.506-9.879
		c3.124-5.373,7.655-8.334,14.031-8.146c5.428,0.159,10.756,0.893,15.742,3.128C94.049,32.014,96.095,33.43,98.448,34.786z"/>
	<path d="M121.167,124.445c-3.695-0.271-6.726-1.821-8.747-4.942c-3.078-4.751-1.917-10.522,2.662-13.914
		c6.586-4.878,16.267-1.216,17.81,6.739c0.991,5.119-2.58,10.334-8.091,11.76c-0.877,0.227-1.791,0.307-2.844,0.479
		c0.865,1.605,2.258,2.119,3.793,2.168c5.834,0.189,10.109-2.491,13.021-7.416c1.872-3.164,2.518-6.691,2.661-10.326
		c0.282-7.104-1.117-13.982-2.771-20.827c-0.271-1.115-0.57-2.224-0.66-3.409c0.468,1.215,0.945,2.424,1.398,3.643
		c2.288,6.144,4.235,12.381,5.01,18.922c0.582,4.934,0.568,9.836-1.654,14.432c-0.67,1.381-2.037,2.469-2.512,3.883
		c-0.469,1.396-0.082,3.055-0.313,4.561c-0.152,0.992-0.593,2.015-1.152,2.854c-2.743,4.117-7.127,5.329-11.567,6.417
		c3.684-2.576,8.218-4.451,7.938-10.218c-1.885,0.511-3.571,1.097-5.31,1.396c-1.357,0.235-2.799,0.285-4.166,0.119
		c-1.932-0.236-3.42-1.256-4.033-3.271c-1.906,2.965-4.275,3.761-8.362,2.693c-1.724-0.449-3.39-1.119-5.138-1.709
		c-0.681,1.683-0.154,3.24,0.719,4.709c1.39,2.332,3.555,3.854,5.762,5.317c0.295,0.196,0.595,0.386,0.847,0.654
		c-4.052-1.157-7.95-2.619-10.659-6.095c-1.688-2.166-2.11-4.674-1.666-7.371c0.081-0.491,0.023-1.168-0.26-1.537
		c-3.284-4.287-3.823-9.219-3.338-14.346c0.778-8.222,3.793-15.779,7.13-23.227c0.39-0.871,0.791-1.738,1.35-2.561
		c-0.046,0.213-0.072,0.435-0.142,0.641c-1.972,5.822-3.7,11.713-4.506,17.824c-0.652,4.945-0.805,9.893,1.118,14.646
		c1.985,4.906,5.57,8.052,10.748,9.147c1.376,0.293,2.918,0.018,4.342-0.236c0.66-0.117,1.219-0.811,1.82-1.241
		C121.328,124.686,121.248,124.564,121.167,124.445z"/>
	<path d="M102.745,77.223c-4.278,1.159-8.43,1.322-12.518-0.446c0.435-2.952,3.167-5.156,6.23-5.126
		C99.712,71.683,102.356,73.964,102.745,77.223z"/>
	<path d="M152.205,75.615c-4.244,1.371-8.356,1.164-12.429-0.378c-0.071-2.379,2.507-4.808,5.399-5.113
		C148.696,69.753,151.628,71.997,152.205,75.615z"/>
</g>
</svg>
