<?xml version="1.0" encoding="utf-8"?>
<!-- Generator: Adobe Illustrator 16.0.0, SVG Export Plug-In . SVG Version: 6.00 Build 0)  -->
<!DOCTYPE svg PUBLIC "-//W3C//DTD SVG 1.1//EN" "http://www.w3.org/Graphics/SVG/1.1/DTD/svg11.dtd">
<svg version="1.1" id="Layer_1" xmlns="http://www.w3.org/2000/svg" xmlns:xlink="http://www.w3.org/1999/xlink" x="0px" y="0px"
	 width="715.547px" height="123.402px" viewBox="0 0 715.547 123.402" enable-background="new 0 0 715.547 123.402"
	 xml:space="preserve">
<path display="none" fill="#363636" d="M127.041,55.749c0-12.018,8.474-22.387,22.679-22.387c14.212,0,22.688,10.37,22.688,22.387
	c0,12.279-8.479,22.395-22.688,22.395C135.515,78.142,127.041,68.028,127.041,55.749z M160.651,55.749
	c0-6.548-4.1-12.293-10.932-12.293c-7.093,0-10.934,5.745-10.934,12.293c0,6.813,3.84,12.58,10.934,12.58
	C156.552,68.328,160.651,62.563,160.651,55.749z"/>
<path display="none" fill="#363636" d="M206.013,51.372c0-5.994-3.013-7.917-7.92-7.917c-4.377,0-7.938,2.451-9.843,4.907V78.14
	h-11.21V33.08h11.49v6.553c2.73-3.29,7.922-6.553,15.033-6.553c9.284,0,13.91,5.186,13.91,13.662v31.397h-11.177L206.013,51.372z"/>
<path display="none" fill="#363636" d="M239.056,66.663V43.172h-7.081v-9.811h7.081v-6.833l11.494-3.573v10.651h8.724v9.847h-8.724
	v20.476c0,2.732,1.363,4.649,3.815,4.649c1.645,0,3.293-0.551,3.821-1.368l2.453,8.505c-1.616,1.617-4.629,2.738-9.287,2.738
	C243.154,78.453,239.056,74.347,239.056,66.663z"/>
<path display="none" fill="#363636" d="M294.242,51.093c0-5.994-2.98-7.921-7.891-7.921c-4.376,0-7.947,2.484-9.842,4.938v29.781
	h-11.21V17.77h11.21v21.863c2.73-3.29,8.165-6.553,15-6.553c9.316,0,13.964,5.186,13.964,13.386v31.427h-11.231V51.093
	L294.242,51.093z"/>
<path display="none" fill="#363636" d="M332.79,33.362c12.815,0,21.573,9.563,21.573,23.477v2.483h-31.979
	c0.854,5.464,4.954,9.813,12.294,9.813c4.096,0,8.753-1.617,11.484-4.351l4.911,7.339c-4.354,4.095-10.937,6.018-17.765,6.018
	c-13.106,0-22.921-8.75-22.921-22.395C310.393,43.455,319.65,33.362,332.79,33.362z M322.132,51.932h21.054
	c-0.31-4.102-3.047-9.564-10.686-9.564C325.669,42.367,322.688,47.552,322.132,51.932z"/>
<path display="none" fill="#BC793C" d="M391.252,33.362c8.766,0,14.23,3.818,16.959,7.916l-7.391,6.833
	c-1.924-3.013-5.215-4.657-9-4.657c-6.834,0-11.488,4.906-11.488,12.293c0,7.362,4.896,12.58,11.488,12.58
	c3.783,0,7.076-1.665,9-4.657l7.391,6.832c-2.727,4.1-8.193,7.951-16.959,7.951c-13.1,0-22.666-9.315-22.666-22.42
	C368.586,42.645,378.155,33.362,391.252,33.362z"/>
<path display="none" fill="#BC793C" d="M413.124,18.05h11.176V78.14h-11.176V18.05z"/>
<path display="none" fill="#BC793C" d="M429.209,55.749c0-12.018,8.512-22.387,22.707-22.387c14.189,0,22.68,10.37,22.68,22.387
	c0,12.279-8.49,22.395-22.68,22.395C437.721,78.142,429.209,68.028,429.209,55.749z M462.815,55.749
	c0-6.548-4.102-12.293-10.898-12.293c-6.84,0-10.932,5.745-10.932,12.293c0,6.813,3.813,12.58,10.932,12.58
	C459.02,68.328,462.815,62.563,462.815,55.749z"/>
<path display="none" fill="#BC793C" d="M502.186,33.362c8.74,0,14.207,3.818,16.941,7.916l-7.373,6.833
	c-1.926-3.013-5.215-4.657-9.025-4.657c-6.824,0-11.475,4.906-11.475,12.293c0,7.362,4.908,12.58,11.475,12.58
	c3.809,0,7.104-1.665,9.025-4.657l7.373,6.832c-2.734,4.1-8.201,7.951-16.941,7.951c-13.1,0-22.666-9.315-22.666-22.42
	C479.52,42.645,488.776,33.362,502.186,33.362z"/>
<path display="none" fill="#BC793C" d="M540.44,60.688l-5.211,5.466V78.14h-11.176V18.05h11.178V53.3l17.205-20.219h13.953
	l-17.762,20.495L566.93,78.14h-14.205L540.44,60.688z"/>
<g display="none">
	<path display="inline" fill="#363636" d="M90.707,52.457c1.657,0,3.009,1.471,3.009,3.292c0,1.83-1.353,3.264-3.009,3.264
		c-1.66,0-3.005-1.437-3.005-3.264C87.703,53.928,89.049,52.457,90.707,52.457z"/>
	<path display="inline" fill="#363636" d="M16.667,52.457c1.659,0,2.995,1.471,2.995,3.292c0,1.83-1.336,3.264-2.995,3.264
		c-1.66,0-3.004-1.437-3.004-3.264C13.664,53.928,15.007,52.457,16.667,52.457z"/>
</g>
<g display="none">
	<path display="inline" fill="#363636" d="M53.544,14.759c1.659,0,3.01,1.466,3.01,3.292c0,1.804-1.351,3.272-3.01,3.272
		c-1.661,0-2.996-1.471-2.996-3.272C50.548,16.224,51.884,14.759,53.544,14.759z"/>
	<path display="inline" fill="#363636" d="M53.544,90.189c1.659,0,3.01,1.438,3.01,3.294c0,1.794-1.351,3.23-3.01,3.23
		c-1.661,0-2.996-1.438-2.996-3.23C50.548,91.627,51.884,90.189,53.544,90.189z"/>
</g>
<g display="none">
	<path display="inline" fill="#363636" d="M72.399,19.958c1.659,0,3.006,1.484,3.006,3.28c0,1.823-1.348,3.292-3.006,3.292
		c-1.664,0-2.998-1.469-2.998-3.292C69.401,21.44,70.735,19.958,72.399,19.958z"/>
	<path display="inline" fill="#363636" d="M34.969,84.976c1.661,0,3.013,1.496,3.013,3.29s-1.353,3.29-3.013,3.29
		c-1.661,0-3.009-1.494-3.009-3.29C31.96,86.472,33.308,84.976,34.969,84.976z"/>
</g>
<g display="none">
	<path display="inline" fill="#363636" d="M85.797,33.888c1.658,0,2.991,1.466,2.991,3.293c0,1.791-1.333,3.259-2.991,3.259
		c-1.661,0-3.013-1.468-3.013-3.259C82.785,35.355,84.136,33.888,85.797,33.888z"/>
	<path display="inline" fill="#363636" d="M21.583,71.06c1.659,0,3.007,1.445,3.007,3.296c0,1.793-1.348,3.229-3.007,3.229
		c-1.66,0-3.012-1.437-3.012-3.229C18.572,72.504,19.925,71.06,21.583,71.06z"/>
</g>
<g display="none">
	<path display="inline" fill="#363636" d="M34.686,19.958c1.664,0,3.017,1.484,3.017,3.28c0,1.823-1.354,3.292-3.017,3.292
		c-1.659,0-2.998-1.469-2.998-3.292C31.689,21.44,33.028,19.958,34.686,19.958z"/>
	<path display="inline" fill="#363636" d="M72.671,84.722c1.659,0,3.01,1.438,3.01,3.296c0,1.797-1.351,3.229-3.01,3.229
		c-1.66,0-3.004-1.436-3.004-3.229C69.666,86.161,71.011,84.722,72.671,84.722z"/>
</g>
<g display="none">
	<path display="inline" fill="#363636" d="M85.797,71.313c1.658,0,2.991,1.494,2.991,3.289c0,1.793-1.333,3.291-2.991,3.291
		c-1.661,0-3.013-1.494-3.013-3.291C82.785,72.807,84.136,71.313,85.797,71.313z"/>
	<path display="inline" fill="#363636" d="M21.583,33.608c1.659,0,3.007,1.47,3.007,3.293c0,1.825-1.348,3.294-3.007,3.294
		c-1.66,0-3.012-1.468-3.012-3.294C18.572,35.077,19.925,33.608,21.583,33.608z"/>
</g>
<path display="none" fill="#363636" d="M53.544,50.566c2.873,0,5.2,2.33,5.2,5.184c0,2.857-2.328,5.188-5.2,5.188
	c-2.861,0-5.188-2.331-5.188-5.188C48.355,52.895,50.683,50.566,53.544,50.566z"/>
<polygon display="none" fill="#363636" points="84.149,28.983 53.279,55.193 54.097,56.558 "/>
<path display="none" fill="#BC793C" d="M107.381,55.749c0,30.032-24.057,54.629-53.56,54.629S0,85.78,0,55.749
	C0,25.687,24.038,1.104,53.545,1.104C83.062,1.105,107.381,25.688,107.381,55.749z M53.544,10.13
	c-24.583,0-44.807,20.497-44.807,45.618c0,25.127,19.949,45.625,44.807,45.625c24.872,0,44.81-20.498,44.81-45.625
	C98.353,30.628,78.415,10.13,53.544,10.13z"/>
<path display="none" fill="#363636" d="M53.544,52.738L53.544,52.738c-0.813,0-2.18-0.807-2.18-1.645l1.367-25.406
	c0-0.807,0.271-1.634,0.813-1.634c0.553,0,1.103,0.829,1.103,1.634l1.366,25.402C55.735,51.932,54.37,52.738,53.544,52.738z"/>
<path display="none" fill="#363636" d="M49.721,58.506l-16.937-0.839c-1.096,0-1.917-0.832-1.917-1.921
	c0-0.804,0.82-1.923,1.917-1.923l16.937-0.811c1.088,0,1.915,1.647,1.915,2.731l0,0C51.636,56.837,50.811,58.506,49.721,58.506z"/>
<g display="none">
	<g>
		<path display="inline" fill="#ECEDEF" d="M107.686,69.922c0.129-21.874-16.397-39.952-37.688-42.223l0.917-0.739L54.159,14.292
			l0.056,9.665C33.276,28.965,17.656,47.82,17.656,70.262c0,26.229,21.338,47.561,47.586,47.561
			c25.345,0,46.207-19.783,47.521-45.05l-5.172-0.289C107.64,71.658,107.683,70.814,107.686,69.922z"/>
		<path display="inline" fill="#E3E4E6" d="M107.213,69.302c0.126-21.875-16.402-39.952-37.688-42.233l0.915-0.729L53.683,13.667
			l0.055,9.663c-20.937,5.004-36.557,23.863-36.557,46.304c0,26.24,21.337,47.567,47.583,47.567
			c25.342,0,46.21-19.783,47.523-45.054l-5.172-0.285C107.166,71.034,107.211,70.185,107.213,69.302z"/>
		<path display="inline" fill="#DADBDD" d="M106.74,68.67c0.123-21.873-16.4-39.95-37.688-42.225l0.917-0.734L53.212,13.043
			l0.048,9.667c-20.936,5.002-36.553,23.854-36.553,46.294c0,26.242,21.341,47.574,47.584,47.574
			c25.341,0,46.209-19.784,47.523-45.057l-5.172-0.284C106.694,70.405,106.738,69.555,106.74,68.67z"/>
		<path display="inline" fill="#D1D2D4" d="M106.265,68.051c0.122-21.876-16.402-39.951-37.688-42.23l0.921-0.729L52.741,12.416
			l0.051,9.665c-20.938,5.004-36.556,23.866-36.556,46.294c0,26.247,21.341,47.583,47.586,47.583
			c25.338,0,46.205-19.797,47.521-45.063l-5.173-0.283C106.22,69.783,106.263,68.93,106.265,68.051z"/>
		<path display="inline" fill="#C8C9CB" d="M105.792,67.427C105.913,45.554,89.39,27.472,68.1,25.189l0.918-0.721L52.263,11.794
			l0.05,9.664C31.377,26.454,15.757,45.312,15.757,67.75c0,26.237,21.345,47.585,47.588,47.585
			c25.338,0,46.209-19.796,47.523-45.066l-5.175-0.278C105.746,69.154,105.791,68.306,105.792,67.427z"/>
		<path display="inline" fill="#BFBFC2" d="M105.32,66.798c0.119-21.875-16.402-39.953-37.688-42.231l0.918-0.729L51.791,11.164
			l0.047,9.668C30.9,25.835,15.285,44.691,15.285,67.117c0,26.248,21.344,47.58,47.587,47.58c25.338,0,46.206-19.782,47.524-45.06
			l-5.173-0.276C105.273,68.533,105.317,67.675,105.32,66.798z"/>
		<path display="inline" fill="#B6B6B9" d="M104.845,66.176c0.071-21.872-16.401-39.949-37.689-42.24l0.919-0.714L51.316,10.54
			l0.047,9.665c-20.935,4.998-36.55,23.854-36.55,46.287c0,26.254,21.34,47.584,47.585,47.584c25.338,0,46.208-19.783,47.525-45.063
			l-5.172-0.274C104.802,67.91,104.84,67.053,104.845,66.176z"/>
		<path display="inline" fill="#ADADB0" d="M104.37,65.547c0.12-21.874-16.401-39.952-37.69-42.235l0.921-0.719L50.846,9.915
			l0.043,9.666c-20.933,4.996-36.551,23.854-36.551,46.287c0,26.251,21.343,47.585,47.585,47.585
			c25.339,0,46.213-19.781,47.523-45.074l-5.171-0.265C104.327,67.278,104.367,66.416,104.37,65.547z"/>
		<path display="inline" fill="#A4A4A7" d="M103.893,64.923c0.077-21.872-16.4-39.948-37.686-42.241l0.92-0.717L50.37,9.283
			l0.042,9.668c-20.931,4.996-36.551,23.858-36.551,46.283c0,26.262,21.347,47.597,47.582,47.597
			c25.342,0,46.212-19.796,47.528-45.075l-5.172-0.272C103.854,66.659,103.891,65.795,103.893,64.923z"/>
		<path display="inline" fill="#9A9B9E" d="M103.422,64.302c0.07-21.873-16.403-39.956-37.689-42.246l0.924-0.711L49.898,8.664
			l0.04,9.668c-20.93,4.991-36.546,23.85-36.546,46.279c0,26.247,21.345,47.599,47.58,47.599c25.338,0,46.212-19.797,47.529-45.076
			l-5.174-0.271C103.384,66.026,103.417,65.163,103.422,64.302z"/>
		<path display="inline" fill="#919295" d="M102.946,63.672c0.119-21.87-16.398-39.95-37.689-42.237l0.923-0.718L49.422,8.037
			l0.041,9.667C28.53,22.701,12.916,41.558,12.916,63.978c0,26.26,21.346,47.593,47.578,47.593c25.337,0,46.216-19.781,47.53-45.068
			l-5.175-0.268C102.907,65.409,102.945,64.537,102.946,63.672z"/>
		<path display="inline" fill="#88898C" d="M102.472,63.052c0.059-21.874-16.401-39.951-37.691-42.248l0.929-0.708L48.946,7.408
			l0.044,9.669c-20.933,4.992-36.551,23.85-36.551,46.278c0,26.264,21.351,47.594,47.583,47.594
			c25.338,0,46.214-19.783,47.53-45.069l-5.173-0.27C102.432,64.783,102.471,63.913,102.472,63.052z"/>
		<path display="inline" fill="#7F8083" d="M102.001,62.42c0.067-21.868-16.404-39.948-37.691-42.239l0.925-0.709L48.473,6.788
			l0.041,9.668c-20.931,4.99-36.547,23.848-36.547,46.267c0,26.271,21.35,47.606,47.582,47.606c25.334,0,46.213-19.784,47.53-45.084
			l-5.174-0.257C101.963,64.155,101.996,63.282,102.001,62.42z"/>
		<path display="inline" fill="#76767A" d="M101.526,61.801c0.068-21.874-16.403-39.948-37.691-42.253l0.926-0.705L48.004,6.155
			l0.035,9.668c-20.93,4.991-36.546,23.85-36.546,46.271c0,26.263,21.349,47.611,47.581,47.611
			c25.336,0,46.216-19.798,47.533-45.089l-5.175-0.261C101.487,63.534,101.522,62.658,101.526,61.801z"/>
		<path display="inline" fill="#6D6D71" d="M101.052,61.177c0.072-21.871-16.403-39.955-37.693-42.251l0.93-0.704L47.528,5.534
			l0.038,9.668c-20.929,4.992-36.549,23.85-36.549,46.271c0,26.257,21.35,47.61,47.582,47.61c25.336,0,46.218-19.796,47.532-45.095
			l-5.174-0.253C101.012,62.905,101.047,62.022,101.052,61.177z"/>
		<path display="inline" fill="#646468" d="M100.575,60.548c0.062-21.872-16.402-39.95-37.688-42.247l0.928-0.708L47.058,4.908
			l0.032,9.669c-20.927,4.989-36.543,23.852-36.543,46.262c0,26.266,21.351,47.604,47.578,47.604c25.338,0,46.22-19.782,47.53-45.08
			l-5.174-0.257C100.543,62.284,100.573,61.402,100.575,60.548z"/>
		<path display="inline" fill="#5B5B5F" d="M100.102,59.926c0.116-21.87-16.4-39.949-37.689-42.257l0.929-0.697L46.583,4.282
			l0.031,9.669c-20.923,4.983-36.542,23.843-36.542,46.268c0,26.271,21.351,47.606,47.579,47.606
			c25.336,0,46.221-19.784,47.532-45.084l-5.172-0.256C100.067,61.661,100.102,60.767,100.102,59.926z"/>
	</g>
	<g display="inline">
		<g>
			<path fill="#394154" d="M107.208,59.754c-0.117,25.211-20.668,45.527-45.874,45.371c-25.191-0.092-45.507-20.621-45.375-45.837
				c0.146-25.206,20.677-45.53,45.867-45.404C87.034,14.043,107.349,34.569,107.208,59.754z"/>
			<path fill="#FFFFFF" d="M98.96,59.731c-0.113,20.671-16.923,37.295-37.572,37.156C40.743,96.813,24.11,79.999,24.22,59.339
				c0.108-20.668,16.927-37.286,37.572-37.189C82.426,22.253,99.078,39.078,98.96,59.731z"/>
			
				<line fill="none" stroke="#394154" stroke-width="2.7866" stroke-linecap="round" stroke-linejoin="round" stroke-miterlimit="10" x1="61.372" y1="25.273" x2="61.337" y2="32.126"/>
			
				<line fill="none" stroke="#394154" stroke-width="2.7866" stroke-linecap="round" stroke-linejoin="round" stroke-miterlimit="10" x1="61.042" y1="87.636" x2="61.009" y2="94.485"/>
			
				<line fill="none" stroke="#394154" stroke-width="2.7866" stroke-linecap="round" stroke-linejoin="round" stroke-miterlimit="10" x1="26.589" y1="59.693" x2="33.457" y2="59.731"/>
			
				<line fill="none" stroke="#394154" stroke-width="2.7866" stroke-linecap="round" stroke-linejoin="round" stroke-miterlimit="10" x1="88.942" y1="60.006" x2="95.8" y2="60.078"/>
			
				<line fill="none" stroke="#394154" stroke-width="2.7866" stroke-linecap="round" stroke-linejoin="round" stroke-miterlimit="10" x1="36.801" y1="35.339" x2="41.623" y2="40.209"/>
			
				<line fill="none" stroke="#394154" stroke-width="2.7866" stroke-linecap="round" stroke-linejoin="round" stroke-miterlimit="10" x1="80.769" y1="79.515" x2="85.597" y2="84.39"/>
			
				<line fill="none" stroke="#394154" stroke-width="2.7866" stroke-linecap="round" stroke-linejoin="round" stroke-miterlimit="10" x1="37.342" y1="84.94" x2="42.084" y2="80"/>
			
				<line fill="none" stroke="#394154" stroke-width="2.7866" stroke-linecap="round" stroke-linejoin="round" stroke-miterlimit="10" x1="80.327" y1="39.756" x2="85.054" y2="34.795"/>
			<polygon fill="#434142" points="62.818,58.985 61.792,42.566 60.722,58.972 			"/>
			<polygon fill="#434142" points="61.754,58.426 35.711,59.401 61.749,60.551 			"/>
			<polygon fill="#394154" points="64.371,63.884 63.942,64.125 47.773,36.034 48.221,35.805 			"/>
			<path fill="#434142" d="M63.96,59.513c-0.019,1.208-0.999,2.188-2.211,2.182c-1.215-0.013-2.178-0.989-2.172-2.193
				c0-1.243,0.987-2.196,2.197-2.191C62.977,57.312,63.969,58.322,63.96,59.513z"/>
		</g>
		<path fill="#E2B139" d="M105.046,63.032c-1.228,23.529-20.604,42-44.111,42c-24.356,0-44.175-19.896-44.175-44.34
			c0-20.358,13.693-37.539,32.293-42.736l0.061,9.719l17.952-13.917L48.961,0l0.063,10.479C26.413,15.897,9.562,36.332,9.562,60.692
			c0,28.404,23.043,51.575,51.375,51.575c27.351,0,49.889-21.47,51.318-48.864L105.046,63.032z"/>
	</g>
</g>
<text transform="matrix(0.9375 0 0 1 117.7324 91.0369)" display="none" fill="#E2B537" enable-background="new    " font-family="'Moderna'" font-size="80.9129">timework</text>
<text transform="matrix(0.9375 0 0 1 468.7163 91.0369)" display="none" fill="#394154" enable-background="new    " font-family="'Moderna'" font-size="80.9129">Eureka</text>
<text transform="matrix(1.0832 0 0 1 273.0806 87.6013)" display="none" enable-background="new    " font-family="'Moderna'" font-size="80.9129">EUREKA</text>
<g>
	<path fill="#F4F4F4" d="M277.005,15.239c3.558-2.017,7.744-3.418,12.132-4.17c9.94-1.704,19.733-1.322,29.257,2.3
		c1.264,0.48,2.445,1.17,3.69,1.704c0.292,0.125,0.818,0.163,1.017-0.011c3.656-3.243,8.123-4.711,12.754-5.712
		c3.83-0.828,7.717-1.221,11.668-0.858c4.183,0.384,7.242,2.57,9.705,5.735c3.256,4.185,4.754,9.091,5.447,14.259
		c0.543,4.064,0.738,8.212-0.576,12.115c-0.826,2.449-0.543,4.563,0.006,6.926c3.334,14.346,2.953,28.547-2.289,42.417
		c-4.706,12.455-12.737,22.039-24.904,27.869c-1.286,0.617-2.615,1.143-3.926,1.709c-0.133-0.152-0.268-0.309-0.399-0.461
		c0.277-0.104,0.624-0.129,0.821-0.314c12.57-11.85,21.423-25.916,25.361-42.859c1.134-4.883,1.709-9.852,1.148-14.872
		c-0.521-4.666-1.521-9.242-3.699-13.433c-0.854-1.644-0.914-3.218-0.801-4.95c0.36-5.438,0.403-10.875-1.052-16.188
		c-1.116-4.076-3.024-7.602-7.322-9.136c-2.937-1.048-5.909-0.74-8.854-0.002c-5.17,1.295-9.825,3.76-14.35,6.483
		c-0.719,0.432-1.178,0.464-1.9,0.023c-4.315-2.631-8.864-4.75-13.826-5.863c-5.857-1.314-11.628-0.847-17.173,1.358
		c-3.251,1.293-6.35,2.978-9.476,4.569c-0.66,0.336-1.072,0.375-1.705-0.014c-4.504-2.764-9.16-5.221-14.33-6.516
		c-3.513-0.879-7.012-1.168-10.398,0.555c-2.49,1.267-3.974,3.391-5.035,5.874c-1.567,3.665-2.03,7.558-2.11,11.475
		c-0.063,3.15,0.227,6.307,0.322,9.461c0.015,0.491-0.065,1.051-0.292,1.475c-3.904,7.293-5.027,15.108-4.223,23.227
		c1.755,17.711,9.28,32.697,21.683,45.33c0.811,0.826,1.7,1.576,2.573,2.338c0.868,0.758,1.762,1.488,2.516,2.49
		c-2.028-0.953-4.108-1.811-6.076-2.875c-10.417-5.635-17.535-14.225-22.048-25.041c-4.264-10.219-5.647-20.908-4.923-31.917
		c0.336-5.119,1.231-10.134,2.551-15.084c0.137-0.511,0.191-1.144,0.016-1.623c-1.996-5.471-1.874-11.043-0.889-16.666
		c0.612-3.491,1.722-6.811,3.506-9.879c3.124-5.373,7.655-8.334,14.031-8.146c5.428,0.159,10.756,0.893,15.742,3.128
		C272.605,12.467,274.652,13.883,277.005,15.239z"/>
	<path fill="#F4F4F4" d="M299.724,104.898c-3.695-0.271-6.726-1.822-8.747-4.943c-3.078-4.75-1.916-10.521,2.662-13.914
		c6.587-4.877,16.268-1.215,17.811,6.74c0.991,5.119-2.58,10.334-8.091,11.76c-0.877,0.227-1.791,0.307-2.844,0.479
		c0.865,1.605,2.258,2.119,3.793,2.168c5.834,0.189,10.109-2.492,13.021-7.416c1.872-3.164,2.518-6.691,2.661-10.326
		c0.282-7.104-1.117-13.982-2.771-20.828c-0.271-1.115-0.57-2.223-0.66-3.408c0.468,1.215,0.945,2.424,1.398,3.643
		c2.288,6.143,4.235,12.381,5.01,18.922c0.582,4.934,0.568,9.836-1.654,14.432c-0.67,1.381-2.037,2.469-2.512,3.883
		c-0.469,1.396-0.082,3.055-0.313,4.561c-0.152,0.992-0.593,2.014-1.152,2.854c-2.743,4.117-7.127,5.33-11.567,6.418
		c3.684-2.576,8.218-4.451,7.938-10.219c-1.885,0.512-3.571,1.098-5.31,1.396c-1.357,0.234-2.799,0.285-4.166,0.119
		c-1.932-0.236-3.42-1.256-4.033-3.271c-1.906,2.965-4.274,3.76-8.362,2.693c-1.724-0.449-3.39-1.119-5.138-1.709
		c-0.681,1.682-0.154,3.24,0.719,4.709c1.39,2.332,3.556,3.854,5.763,5.316c0.295,0.197,0.594,0.387,0.847,0.654
		c-4.052-1.156-7.95-2.619-10.659-6.094c-1.688-2.166-2.11-4.674-1.666-7.371c0.081-0.492,0.023-1.168-0.26-1.537
		c-3.284-4.287-3.823-9.219-3.338-14.346c0.778-8.223,3.793-15.779,7.13-23.227c0.39-0.871,0.791-1.738,1.35-2.561
		c-0.046,0.213-0.071,0.434-0.142,0.641c-1.972,5.822-3.7,11.713-4.506,17.824c-0.652,4.945-0.805,9.893,1.118,14.645
		c1.985,4.906,5.57,8.053,10.748,9.148c1.377,0.293,2.919,0.018,4.343-0.236c0.66-0.117,1.219-0.811,1.82-1.242
		C299.884,105.138,299.804,105.017,299.724,104.898z"/>
	<path fill="#F4F4F4" d="M281.302,57.675c-4.278,1.159-8.43,1.322-12.518-0.445c0.435-2.952,3.167-5.156,6.23-5.127
		C278.269,52.136,280.913,54.416,281.302,57.675z"/>
	<path fill="#F4F4F4" d="M330.761,56.068c-4.244,1.371-8.356,1.164-12.429-0.379c-0.071-2.379,2.507-4.807,5.399-5.112
		C327.252,50.205,330.185,52.449,330.761,56.068z"/>
</g>
<text transform="matrix(1 0 0 1 1 92.197)" fill="#F4F4F4" font-family="'Cairo-Bold'" font-size="125">dieg</text>
<text transform="matrix(1 0 0 1 365.6206 92.197)" fill="#F4F4F4" font-family="'Cairo-Bold'" font-size="125">svaldo</text>
</svg>
